<?xml version="1.0" encoding="iso-8859-1"?>
<!-- Generator: Adobe Illustrator 19.0.0, SVG Export Plug-In . SVG Version: 6.00 Build 0)  -->
<svg version="1.1" id="Capa_1" xmlns="http://www.w3.org/2000/svg" xmlns:xlink="http://www.w3.org/1999/xlink" x="0px" y="0px"
	 viewBox="0 0 512 512" style="enable-background:new 0 0 512 512;" xml:space="preserve">
<path style="fill:#D04E3F;" d="M445.626,36h-260c-16.569,0-30,13.432-30,30v355c0,16.568,13.431,30,30,30h260
	c16.569,0,30-13.432,30-30V66C475.626,49.432,462.195,36,445.626,36z M196.438,98.057c-12.15,0-22-9.85-22-22s9.85-22,22-22
	s22,9.85,22,22S208.589,98.057,196.438,98.057z M256.032,98.057c-12.15,0-22-9.85-22-22s9.85-22,22-22c12.15,0,22,9.85,22,22
	S268.183,98.057,256.032,98.057z M315.626,98.057c-12.15,0-22-9.85-22-22s9.85-22,22-22c12.15,0,22,9.85,22,22
	S327.776,98.057,315.626,98.057z M375.22,98.057c-12.15,0-22-9.85-22-22s9.85-22,22-22c12.15,0,22,9.85,22,22
	S387.37,98.057,375.22,98.057z M434.813,98.057c-12.15,0-22-9.85-22-22s9.85-22,22-22c12.15,0,22,9.85,22,22
	S446.964,98.057,434.813,98.057z"/>
<path style="fill:#AF313D;" d="M185.626,451h275.002c8.283,0,14.998-6.715,14.998-14.998V66c0-16.568-13.431-30-30-30v20.899
	c6.677,3.777,11.187,10.938,11.187,19.157s-4.51,15.38-11.187,19.157V421h-290C155.626,437.568,169.057,451,185.626,451z"/>
<circle style="fill:#F6E27D;" cx="155.621" cy="385.25" r="119.25"/>
<g>
	<path style="fill:#FFC873;" d="M155.626,459.5c-40.941,0-74.25-33.309-74.25-74.25S114.685,311,155.626,311
		s74.25,33.309,74.25,74.25S196.567,459.5,155.626,459.5z"/>
	<path style="fill:#FFC873;" d="M239.949,300.927L239.949,300.927c-8.41,8.41-9.733,21.554-3.223,31.507
		c10.357,15.833,15.832,34.385,15.645,53.774c-0.24,24.937-10.192,48.964-27.654,66.768C206.369,471.684,181.79,482,155.626,482
		c-19.089,0-37.335-5.491-52.932-15.727c-9.9-6.496-23.016-5.075-31.389,3.298l-0.001,0.001
		c21.806,21.806,52.019,35.207,85.36,34.923c64.745-0.551,117.657-53.463,118.208-118.208
		C275.155,352.947,261.755,322.734,239.949,300.927z"/>
</g>
<path d="M445.626,28.5h-3.313c0-10.172,0-18.682,0-21.462c0-3.887-3.358-7.038-7.5-7.038c-4.142,0-7.5,3.151-7.5,7.038
	c0,2.547,0,11.134,0,21.462h-45c0-10.172,0-18.682,0-21.462c0-3.887-3.358-7.038-7.5-7.038c-4.142,0-7.5,3.151-7.5,7.038
	c0,2.547,0,11.134,0,21.462h-44.188c0-10.172,0-18.682,0-21.462c0-3.887-3.358-7.038-7.5-7.038c-4.142,0-7.5,3.151-7.5,7.038
	c0,2.911,0,11.384,0,21.462h-45c0-10.172,0-18.682,0-21.462c0-3.887-3.358-7.038-7.5-7.038c-4.142,0-7.5,3.151-7.5,7.038
	c0,2.911,0,11.384,0,21.462h-44.188c0-10.079,0-18.552,0-21.462c0-3.887-3.358-7.038-7.5-7.038s-7.5,3.151-7.5,7.038
	c0,2.911,0,11.384,0,21.462h-3.313c-20.678,0-37.5,16.822-37.5,37.5v192.728c-66.412,3.895-119.25,59.15-119.25,126.522
	c0,69.89,56.859,126.75,126.75,126.75s126.75-56.86,126.75-126.75c0-67.372-52.838-122.627-119.25-126.522V66
	c0-12.407,10.094-22.5,22.5-22.5h3.313c0,10.527,0,26.863,0,32.462c0,3.887,3.358,7.038,7.5,7.038s7.5-3.15,7.5-7.038
	c0-2.473,0-7.049,0-12.292c4.188,2.546,7,7.138,7,12.386c0,7.995-6.505,14.5-14.5,14.5s-14.5-6.505-14.5-14.5
	c0-4.142-3.357-7.5-7.5-7.5s-7.5,3.358-7.5,7.5c0,16.267,13.233,29.5,29.5,29.5s29.5-13.233,29.5-29.5
	c0-13.675-9.354-25.204-22-28.531c0-1.408,0-2.758,0-4.026h44.188c0,10.527,0,26.863,0,32.462c0,3.887,3.358,7.038,7.5,7.038
	c4.142,0,7.5-3.15,7.5-7.038c0-2.846,0-7.432,0-12.539c4.414,2.489,7.406,7.215,7.406,12.633c0,7.995-6.505,14.5-14.5,14.5
	c-7.995,0-14.5-6.505-14.5-14.5c0-4.142-3.357-7.5-7.5-7.5s-7.5,3.358-7.5,7.5c0,16.267,13.233,29.5,29.5,29.5
	c16.267,0,29.5-13.233,29.5-29.5c0-13.821-9.556-25.447-22.406-28.632c0-1.375,0-2.691,0-3.925h45c0,10.527,0,26.863,0,32.462
	c0,3.887,3.358,7.038,7.5,7.038c4.142,0,7.5-3.15,7.5-7.038c0-2.8,0-7.285,0-12.292c4.188,2.546,7,7.138,7,12.386
	c0,7.995-6.505,14.5-14.5,14.5s-14.5-6.505-14.5-14.5c0-4.142-3.357-7.5-7.5-7.5s-7.5,3.358-7.5,7.5c0,16.267,13.233,29.5,29.5,29.5
	c16.267,0,29.5-13.233,29.5-29.5c0-13.675-9.354-25.204-22-28.531c0-1.412,0-2.762,0-4.026h44.188c0,9.967,0,25.963,0,32.462
	c0,3.887,3.358,7.038,7.5,7.038c4.142,0,7.5-3.15,7.5-7.038c0-2.846,0-7.432,0-12.539c4.414,2.489,7.406,7.215,7.406,12.633
	c0,7.995-6.505,14.5-14.5,14.5s-14.5-6.505-14.5-14.5c0-4.142-3.357-7.5-7.5-7.5s-7.5,3.358-7.5,7.5c0,16.267,13.233,29.5,29.5,29.5
	c16.267,0,29.5-13.233,29.5-29.5c0-13.821-9.556-25.447-22.406-28.632c0-1.375,0-2.691,0-3.925h45c0,9.967,0,25.963,0,32.462
	c0,3.887,3.358,7.038,7.5,7.038c4.142,0,7.5-3.15,7.5-7.038c0-2.8,0-7.285,0-12.292c4.188,2.546,7,7.138,7,12.386
	c0,7.995-6.505,14.5-14.5,14.5s-14.5-6.505-14.5-14.5c0-4.142-3.357-7.5-7.5-7.5s-7.5,3.358-7.5,7.5c0,16.267,13.233,29.5,29.5,29.5
	c16.267,0,29.5-13.233,29.5-29.5c0-13.675-9.354-25.204-22-28.531c0-1.412,0-2.762,0-4.026h3.313c12.406,0,22.5,10.093,22.5,22.5
	v355c0,12.407-10.094,22.5-22.5,22.5h-156c-4.143,0-7.5,3.358-7.5,7.5s3.357,7.5,7.5,7.5h156c20.678,0,37.5-16.822,37.5-37.5V66
	C483.126,45.322,466.304,28.5,445.626,28.5z M267.376,385.25c0,61.619-50.131,111.75-111.75,111.75s-111.75-50.131-111.75-111.75
	S94.007,273.5,155.626,273.5S267.376,323.631,267.376,385.25z"/>
<path d="M192.91,440.589C181.869,448.054,168.977,452,155.626,452c-36.806,0-66.75-29.944-66.75-66.75c0-4.142-3.357-7.5-7.5-7.5
	s-7.5,3.358-7.5,7.5c0,45.077,36.673,81.75,81.75,81.75c16.357,0,32.155-4.836,45.687-13.985c3.432-2.32,4.332-6.982,2.012-10.414
	C201.005,439.169,196.343,438.269,192.91,440.589z"/>
<path d="M148.126,311c0,4.142,3.357,7.5,7.5,7.5c36.806,0,66.75,29.944,66.75,66.75c0,13.088-3.803,25.766-10.997,36.665
	c-2.282,3.457-1.33,8.109,2.127,10.391c1.272,0.84,2.706,1.242,4.125,1.242c2.436,0,4.824-1.185,6.266-3.369
	c8.818-13.358,13.479-28.894,13.479-44.929c0-45.077-36.673-81.75-81.75-81.75C151.483,303.5,148.126,306.858,148.126,311z"/>
<path d="M148.126,391.786v28.122c-1.015-0.611-1.971-1.336-2.832-2.197c-2.929-2.928-7.677-2.928-10.607,0.001
	c-2.928,2.929-2.928,7.678,0.001,10.606c3.782,3.781,8.402,6.409,13.437,7.72V437c0,4.142,3.358,7.5,7.5,7.5s7.5-3.358,7.5-7.5
	v-0.964c12.715-3.33,22.125-14.916,22.125-28.661s-9.41-25.331-22.125-28.661v-28.122c1.016,0.612,1.972,1.337,2.833,2.198
	c2.93,2.929,7.678,2.929,10.607-0.001c2.929-2.929,2.928-7.678,0-10.606c-3.783-3.782-8.404-6.411-13.44-7.722V333.5
	c0-4.142-3.358-7.5-7.5-7.5s-7.5,3.358-7.5,7.5v0.964c-12.714,3.33-22.124,14.916-22.124,28.661S135.411,388.456,148.126,391.786z
	 M163.126,394.843c4.26,2.559,7.125,7.211,7.125,12.532s-2.865,9.973-7.125,12.532V394.843z M148.126,350.593v25.064
	c-4.26-2.559-7.125-7.211-7.125-12.532S143.866,353.152,148.126,350.593z"/>
<g>
</g>
<g>
</g>
<g>
</g>
<g>
</g>
<g>
</g>
<g>
</g>
<g>
</g>
<g>
</g>
<g>
</g>
<g>
</g>
<g>
</g>
<g>
</g>
<g>
</g>
<g>
</g>
<g>
</g>
</svg>
